<svg width="30" height="30" viewBox="0 0 30 30" fill="none" xmlns="http://www.w3.org/2000/svg">
<g clip-path="url(#clip0_42001_1351)">
<path d="M29.9706 8.82008C29.9003 7.22607 29.6426 6.1302 29.2733 5.18061C28.8924 4.17264 28.3063 3.27022 27.5385 2.52002C26.7883 1.75816 25.8799 1.16615 24.8836 0.79117C23.9286 0.421912 22.8384 0.16414 21.2444 0.0938599C19.6385 0.0176273 19.1287 0 15.0556 0C10.9825 0 10.4727 0.0176273 8.87276 0.0879078C7.27874 0.158188 6.18287 0.416188 5.23351 0.785218C4.22532 1.16615 3.32289 1.7522 2.5727 2.52002C1.81083 3.27022 1.21905 4.1786 0.843844 5.17488C0.474585 6.1302 0.216814 7.22011 0.146533 8.81413C0.0703007 10.42 0.0526733 10.9299 0.0526733 15.0029C0.0526733 19.076 0.0703007 19.5858 0.140581 21.1858C0.210862 22.7798 0.468862 23.8757 0.83812 24.8253C1.21905 25.8332 1.81083 26.7356 2.5727 27.4858C3.32289 28.2477 4.23127 28.8397 5.22756 29.2147C6.18287 29.584 7.27279 29.8417 8.86703 29.912C10.4668 29.9825 10.9768 29.9999 15.0499 29.9999C19.1229 29.9999 19.6328 29.9825 21.2327 29.912C22.8267 29.8417 23.9226 29.584 24.872 29.2147C26.8881 28.4352 28.4821 26.8412 29.2616 24.8253C29.6307 23.8699 29.8887 22.7798 29.959 21.1858C30.0292 19.5858 30.0469 19.076 30.0469 15.0029C30.0469 10.9299 30.0409 10.42 29.9706 8.82008ZM27.2691 21.0686C27.2045 22.5337 26.9584 23.3249 26.7533 23.8523C26.2492 25.1593 25.2119 26.1965 23.905 26.7006C23.3775 26.9057 22.5806 27.1518 21.1212 27.2162C19.5389 27.2867 19.0643 27.3041 15.0616 27.3041C11.0588 27.3041 10.5783 27.2867 9.00164 27.2162C7.53651 27.1518 6.74534 26.9057 6.21789 26.7006C5.56751 26.4602 4.97551 26.0793 4.49499 25.5812C3.99685 25.0947 3.61592 24.5086 3.37554 23.8583C3.17042 23.3308 2.92433 22.5337 2.86 21.0745C2.78949 19.4922 2.77209 19.0174 2.77209 15.0146C2.77209 11.0118 2.78949 10.5313 2.86 8.95492C2.92433 7.48979 3.17042 6.69862 3.37554 6.17117C3.61592 5.52056 3.99685 4.92879 4.50095 4.44804C4.98719 3.9499 5.57324 3.56896 6.22385 3.32882C6.75129 3.1237 7.54842 2.87761 9.00759 2.81305C10.5899 2.74277 11.0647 2.72514 15.0673 2.72514C19.076 2.72514 19.5506 2.74277 21.1272 2.81305C22.5923 2.87761 23.3835 3.1237 23.9109 3.32882C24.5613 3.56896 25.1533 3.9499 25.6338 4.44804C26.132 4.93451 26.5129 5.52056 26.7533 6.17117C26.9584 6.69862 27.2045 7.49551 27.2691 8.95492C27.3393 10.5373 27.357 11.0118 27.357 15.0146C27.357 19.0174 27.3393 19.4862 27.2691 21.0686Z" fill="white"/>
<path d="M15.0552 7.29639C10.8006 7.29639 7.34863 10.7481 7.34863 15.003C7.34863 19.2578 10.8006 22.7096 15.0552 22.7096C19.31 22.7096 22.7618 19.2578 22.7618 15.003C22.7618 10.7481 19.31 7.29639 15.0552 7.29639ZM15.0552 20.002C12.295 20.002 10.0561 17.7634 10.0561 15.003C10.0561 12.2426 12.295 10.0039 15.0552 10.0039C17.8156 10.0039 20.0543 12.2426 20.0543 15.003C20.0543 17.7634 17.8156 20.002 15.0552 20.002Z" fill="white"/>
<path d="M24.8663 6.99152C24.8663 7.98506 24.0607 8.79065 23.0669 8.79065C22.0734 8.79065 21.2678 7.98506 21.2678 6.99152C21.2678 5.99775 22.0734 5.19238 23.0669 5.19238C24.0607 5.19238 24.8663 5.99775 24.8663 6.99152Z" fill="white"/>
</g>
<defs>
<clipPath id="clip0_42001_1351">
<rect width="30" height="30" fill="white"/>
</clipPath>
</defs>
</svg>
