<svg width="96" height="16" viewBox="0 0 96 16" fill="none" xmlns="http://www.w3.org/2000/svg">
<g clip-path="url(#clip0_42001_1250)">
<path d="M15.653 7.28235C15.9679 6.97542 16.0791 6.52496 15.9432 6.10621C15.8071 5.68747 15.4524 5.38855 15.0167 5.32512L11.1426 4.7622C10.9776 4.73817 10.835 4.63469 10.7613 4.48507L9.02933 0.974937C8.83486 0.580543 8.44014 0.335449 8.00025 0.335449C7.56069 0.335449 7.16597 0.580543 6.9715 0.974937L5.23918 4.48539C5.16549 4.63501 5.0226 4.73849 4.8576 4.76252L0.983514 5.32544C0.548111 5.38855 0.193125 5.68779 0.056962 6.10653C-0.0788811 6.52528 0.0322923 6.97574 0.34723 7.28267L3.15027 10.0149C3.26978 10.1315 3.32456 10.2994 3.29637 10.4634L2.6351 14.3215C2.57647 14.6611 2.66553 14.9914 2.88532 15.2519C3.22685 15.6578 3.82308 15.7815 4.29981 15.531L7.76445 13.7093C7.90926 13.6333 8.09156 13.634 8.23606 13.7093L11.701 15.531C11.8695 15.6197 12.0493 15.6646 12.2348 15.6646C12.5734 15.6646 12.8944 15.514 13.1152 15.2519C13.3353 14.9914 13.424 14.6605 13.3654 14.3215L12.7038 10.4634C12.6756 10.2991 12.7304 10.1315 12.8499 10.0149L15.653 7.28235Z" fill="white"/>
</g>
<g clip-path="url(#clip1_42001_1250)">
<path d="M35.653 7.28235C35.9679 6.97542 36.0791 6.52496 35.9432 6.10621C35.8071 5.68747 35.4524 5.38855 35.0167 5.32512L31.1426 4.7622C30.9776 4.73817 30.835 4.63469 30.7613 4.48507L29.0293 0.974937C28.8349 0.580543 28.4401 0.335449 28.0003 0.335449C27.5607 0.335449 27.166 0.580543 26.9715 0.974937L25.2392 4.48539C25.1655 4.63501 25.0226 4.73849 24.8576 4.76252L20.9835 5.32544C20.5481 5.38855 20.1931 5.68779 20.057 6.10653C19.9211 6.52528 20.0323 6.97574 20.3472 7.28267L23.1503 10.0149C23.2698 10.1315 23.3246 10.2994 23.2964 10.4634L22.6351 14.3215C22.5765 14.6611 22.6655 14.9914 22.8853 15.2519C23.2268 15.6578 23.8231 15.7815 24.2998 15.531L27.7645 13.7093C27.9093 13.6333 28.0916 13.634 28.2361 13.7093L31.701 15.531C31.8695 15.6197 32.0493 15.6646 32.2348 15.6646C32.5734 15.6646 32.8944 15.514 33.1152 15.2519C33.3353 14.9914 33.424 14.6605 33.3654 14.3215L32.7038 10.4634C32.6756 10.2991 32.7304 10.1315 32.8499 10.0149L35.653 7.28235Z" fill="white"/>
</g>
<g clip-path="url(#clip2_42001_1250)">
<path d="M55.653 7.28235C55.9679 6.97542 56.0791 6.52496 55.9432 6.10621C55.8071 5.68747 55.4524 5.38855 55.0167 5.32512L51.1426 4.7622C50.9776 4.73817 50.835 4.63469 50.7613 4.48507L49.0293 0.974937C48.8349 0.580543 48.4401 0.335449 48.0003 0.335449C47.5607 0.335449 47.166 0.580543 46.9715 0.974937L45.2392 4.48539C45.1655 4.63501 45.0226 4.73849 44.8576 4.76252L40.9835 5.32544C40.5481 5.38855 40.1931 5.68779 40.057 6.10653C39.9211 6.52528 40.0323 6.97574 40.3472 7.28267L43.1503 10.0149C43.2698 10.1315 43.3246 10.2994 43.2964 10.4634L42.6351 14.3215C42.5765 14.6611 42.6655 14.9914 42.8853 15.2519C43.2268 15.6578 43.8231 15.7815 44.2998 15.531L47.7645 13.7093C47.9093 13.6333 48.0916 13.634 48.2361 13.7093L51.701 15.531C51.8695 15.6197 52.0493 15.6646 52.2348 15.6646C52.5734 15.6646 52.8944 15.514 53.1152 15.2519C53.3353 14.9914 53.424 14.6605 53.3654 14.3215L52.7038 10.4634C52.6756 10.2991 52.7304 10.1315 52.8499 10.0149L55.653 7.28235Z" fill="white"/>
</g>
<g clip-path="url(#clip3_42001_1250)">
<path d="M75.653 7.28235C75.9679 6.97542 76.0791 6.52496 75.9432 6.10621C75.8071 5.68747 75.4524 5.38855 75.0167 5.32512L71.1426 4.7622C70.9776 4.73817 70.835 4.63469 70.7613 4.48507L69.0293 0.974937C68.8349 0.580543 68.4401 0.335449 68.0003 0.335449C67.5607 0.335449 67.166 0.580543 66.9715 0.974937L65.2392 4.48539C65.1655 4.63501 65.0226 4.73849 64.8576 4.76252L60.9835 5.32544C60.5481 5.38855 60.1931 5.68779 60.057 6.10653C59.9211 6.52528 60.0323 6.97574 60.3472 7.28267L63.1503 10.0149C63.2698 10.1315 63.3246 10.2994 63.2964 10.4634L62.6351 14.3215C62.5765 14.6611 62.6655 14.9914 62.8853 15.2519C63.2268 15.6578 63.8231 15.7815 64.2998 15.531L67.7645 13.7093C67.9093 13.6333 68.0916 13.634 68.2361 13.7093L71.701 15.531C71.8695 15.6197 72.0493 15.6646 72.2348 15.6646C72.5734 15.6646 72.8944 15.514 73.1152 15.2519C73.3353 14.9914 73.424 14.6605 73.3654 14.3215L72.7038 10.4634C72.6756 10.2991 72.7304 10.1315 72.8499 10.0149L75.653 7.28235Z" fill="white"/>
</g>
<g clip-path="url(#clip4_42001_1250)">
<path d="M95.653 7.28235C95.9679 6.97542 96.0791 6.52496 95.9432 6.10621C95.8071 5.68747 95.4524 5.38855 95.0167 5.32512L91.1426 4.7622C90.9776 4.73817 90.835 4.63469 90.7613 4.48507L89.0293 0.974937C88.8349 0.580543 88.4401 0.335449 88.0003 0.335449C87.5607 0.335449 87.166 0.580543 86.9715 0.974937L85.2392 4.48539C85.1655 4.63501 85.0226 4.73849 84.8576 4.76252L80.9835 5.32544C80.5481 5.38855 80.1931 5.68779 80.057 6.10653C79.9211 6.52528 80.0323 6.97574 80.3472 7.28267L83.1503 10.0149C83.2698 10.1315 83.3246 10.2994 83.2964 10.4634L82.6351 14.3215C82.5765 14.6611 82.6655 14.9914 82.8853 15.2519C83.2268 15.6578 83.8231 15.7815 84.2998 15.531L87.7645 13.7093C87.9093 13.6333 88.0916 13.634 88.2361 13.7093L91.701 15.531C91.8695 15.6197 92.0493 15.6646 92.2348 15.6646C92.5734 15.6646 92.8944 15.514 93.1152 15.2519C93.3353 14.9914 93.424 14.6605 93.3654 14.3215L92.7038 10.4634C92.6756 10.2991 92.7304 10.1315 92.8499 10.0149L95.653 7.28235Z" fill="white"/>
</g>
<defs>
<clipPath id="clip0_42001_1250">
<rect width="16" height="16" fill="white"/>
</clipPath>
<clipPath id="clip1_42001_1250">
<rect width="16" height="16" fill="white" transform="translate(20)"/>
</clipPath>
<clipPath id="clip2_42001_1250">
<rect width="16" height="16" fill="white" transform="translate(40)"/>
</clipPath>
<clipPath id="clip3_42001_1250">
<rect width="16" height="16" fill="white" transform="translate(60)"/>
</clipPath>
<clipPath id="clip4_42001_1250">
<rect width="16" height="16" fill="white" transform="translate(80)"/>
</clipPath>
</defs>
</svg>
